<svg xmlns="http://www.w3.org/2000/svg" viewBox="0 0 220 220">
  <defs>
    <linearGradient id="bg" x1="0%" y1="0%" x2="0%" y2="100%">
      <stop offset="0%" stop-color="#ffe7cf" />
      <stop offset="100%" stop-color="#d9f7e9" />
    </linearGradient>
  </defs>
  <rect width="220" height="220" rx="44" fill="url(#bg)" />
  <g transform="translate(32 36)">
    <path d="M118 40c0 24-18 44-40 44S38 64 38 40 56 0 78 0s40 18 40 40z" fill="#f5b28e" />
    <path d="M73 110c-24 0-43-19-43-43s19-43 43-43 43 19 43 43" fill="#ef9d73" opacity="0.35" />
    <path d="M98 60c0 22-12 40-26 40S46 82 46 60s12-40 26-40 26 18 26 40z" fill="#f8d5bf" />
    <path d="M70 33c4-8 14-13 26-13 20 0 36 16 36 36 0 10-4 19-10 26" fill="none" stroke="#8c3b2c" stroke-width="6" stroke-linecap="round" stroke-linejoin="round" opacity="0.75" />
    <path d="M24 108c14-16 32-24 52-24 26 0 46 12 58 33" fill="none" stroke="#8c3b2c" stroke-width="10" stroke-linecap="round" stroke-linejoin="round" opacity="0.75" />
    <path d="M62 86c0 0 12 16 36 16 16 0 29-9 36-20" fill="none" stroke="#c7684a" stroke-width="10" stroke-linecap="round" stroke-linejoin="round" opacity="0.8" />
    <g transform="translate(12 36)">
      <path d="M46 38c0 14-9 24-20 24S6 52 6 38 15 12 26 12s20 10 20 26z" fill="#ffe0c7" />
      <path d="M34 52c-2 4-6 6-10 6-8 0-14-8-14-18 0-1 0-3 0-4" fill="none" stroke="#8c3b2c" stroke-width="4" stroke-linecap="round" />
      <path d="M12 24c2-6 8-10 14-10 10 0 18 8 18 18 0 3-1 6-2 9" fill="none" stroke="#f26d5b" stroke-width="5" stroke-linecap="round" stroke-linejoin="round" />
      <path d="M20 28l6 4" stroke="#8c3b2c" stroke-width="4" stroke-linecap="round" />
      <path d="M38 28l-6 4" stroke="#8c3b2c" stroke-width="4" stroke-linecap="round" />
      <path d="M22 42c4 4 12 4 16 0" fill="none" stroke="#8c3b2c" stroke-width="4" stroke-linecap="round" />
      <circle cx="22" cy="30" r="3" fill="#8c3b2c" />
      <circle cx="34" cy="30" r="3" fill="#8c3b2c" />
      <path d="M8 8c4-8 12-12 20-12 12 0 22 8 24 18" fill="none" stroke="#8c3b2c" stroke-width="5" stroke-linecap="round" stroke-linejoin="round" />
    </g>
    <path d="M18 120c8-10 26-20 44-20 20 0 34 12 44 26 10 14 22 24 30 24 10 0 18-4 26-14" fill="none" stroke="#8c3b2c" stroke-width="10" stroke-linecap="round" stroke-linejoin="round" opacity="0.65" />
    <path d="M128 52c6 6 10 14 10 24 0 26-21 46-46 46" fill="none" stroke="#8c3b2c" stroke-width="10" stroke-linecap="round" stroke-linejoin="round" opacity="0.55" />
  </g>
</svg>
