<svg width="160" height="160" viewBox="0 0 160 160" xmlns="http://www.w3.org/2000/svg">
  <defs>
    <linearGradient id="skin" x1="0" x2="0" y1="0" y2="1">
      <stop offset="0%" stop-color="#f9d7b6"/>
      <stop offset="100%" stop-color="#f3b78e"/>
    </linearGradient>
    <linearGradient id="shirt" x1="0" x2="0" y1="0" y2="1">
      <stop offset="0%" stop-color="#f5d598"/>
      <stop offset="100%" stop-color="#f0c16b"/>
    </linearGradient>
  </defs>
  <rect width="160" height="160" rx="24" fill="#fff4e5"/>
  <g transform="translate(22 18)">
    <ellipse cx="58" cy="42" rx="42" ry="44" fill="url(#skin)"/>
    <path d="M16 96c6-26 92-26 98 0v20c0 8-6 14-14 14H30c-8 0-14-6-14-14z" fill="url(#shirt)"/>
    <path d="M28 98c12 12 48 12 60 0" fill="none" stroke="#d28552" stroke-width="5" stroke-linecap="round"/>
    <g fill="#d28552">
      <circle cx="40" cy="46" r="6"/>
      <circle cx="76" cy="46" r="6"/>
      <path d="M38 26c8-12 32-12 40 0" stroke="#d28552" stroke-width="7" stroke-linecap="round" fill="none"/>
      <path d="M58 62c10 0 18 8 18 18H40c0-10 8-18 18-18z"/>
    </g>
  </g>
  <path d="M20 54c10-16 26-24 44-22" stroke="#f0c16b" stroke-width="12" stroke-linecap="round" fill="none"/>
  <path d="M140 54c-10-16-26-24-44-22" stroke="#f0c16b" stroke-width="12" stroke-linecap="round" fill="none"/>
</svg>
